<svg height="512" viewBox="0 0 448 512" width="448" xmlns="http://www.w3.org/2000/svg"><path d="m48 32c-26.5 0-48 21.5-48 48v352c0 26.5 21.5 48 48 48h352c26.5 0 48-21.5 48-48v-352c0-26.5-21.5-48-48-48zm277.20117 64c5.62687 0 10.73126.651372 15.25781 1.980469 4.47569 1.317301 8.48936 3.134301 12.03125 5.460941 3.49105 2.30195 6.51074 5.01275 9.00391 8.08203 2.55723 3.08107 4.61458 6.36836 6.22656 9.89844.62588 1.12466.4491 2.02059-.54882 2.64648l-13.9004 5.71484c-1.17729.62731-2.00667.30778-2.66015-.93359-3.11903-5.78011-5.7801-9.57621-10.15235-12.33789-4.42451-2.74987-8.51812-4.05469-15.25781-4.05469-7.32762 0-10.60146 1.45717-15.1914 4.74414-4.55304 3.22251-7.89008 7.27577-9.85938 13.45117-.3953 1.11318-.75433 2.49535-1.17578 4.11914-.34553 1.64992-.62676 3.6702-.80469 6.03516-.17954 2.36604-.34675 5.29496-.5 8.74805-.10205 3.45311-.15234 7.64668-.15234 12.50586 0 4.88423.05028 9.07813.15234 12.53125.15335 3.43982.32061 6.36833.5 8.73437.17791 2.39109.45916 4.39932.80469 6.0625.4218 1.59871.78048 2.97743 1.17578 4.10352 1.9693 6.1507 4.78272 9.51387 8.92578 12.21289 4.09224 2.73662 8.79738 4.70703 16.125 4.70703 6.50945 0 12.46879-1.85479 16.35547-4.68164 3.84983-2.82579 7.04595-6.55908 8.47852-11.66211.62734-2.14869 1.43247-4.82233 1.98242-8.0957.49878-3.27369.5-6.73732.5-11.51954 0-.7555-.4237-1.14062-1.12696-1.14062h-22.26367c-1.25319 0-1.86718-.6124-1.86718-1.86523v-12.76172c0-1.26609.61399-1.88086 1.86718-1.88086h40.85743c1.27933 0 1.88085.61442 1.88085 1.88086v10.90625c0 5.78012-.00039 11.13998-.60156 16.10156-.57609 4.9616-1.35514 9.25641-2.33984 12.38867-3.12044 9.80934-8.06907 16.79247-15.65235 21.99609-7.60941 5.24306-17.4178 8.06836-28.07031 8.06836-10.94578 0-20.16479-2.51693-27.68359-7.51757-7.53208-5.06363-12.91761-12.49558-16.20313-22.43164-.62732-1.87907-1.11184-3.80957-1.48242-5.83008-.38383-2.00725-.73062-4.34819-1.03711-7.04688-.3194-2.72371-.52364-5.91893-.65039-9.6914-.12822-3.74635-.17969-8.32498-.17969-13.56836 0-5.26915.05175-9.78179.17969-13.54102.12715-3.77248.33099-7.00943.65039-9.70703.30649-2.68576.65328-5.03766 1.03711-7.04492.37058-2.0205.85706-3.93929 1.48438-5.81836 3.28552-9.93606 8.66909-17.40411 16.20117-22.41797 7.51884-5.012788 16.73781-7.53125 27.68359-7.53125zm-151.67383 77.8125c43.56867 0 76.80274 19.85839 76.80274 62.64648 0 29.02799-22.91596 58.08293-53.86133 65.32032 18.7335 33.2484 41.25215 62.66128 58.08008 80.97265 9.89847 10.70337 23.6457 20.26758 37.39258 20.26758v9.91211c-4.19285 1.92995-11.06053 3.06836-17.54493 3.06836-22.16011 0-39.71867-8.77336-51.20117-22.54492-12.58426-14.50237-34.74548-45.84469-58.04492-87.46875-12.25125 0-20.26875-.00027-29.4375-.76758v63.78516c0 23.69619 5.37216 28.6713 15.67773 30.16797l19.87305 2.70898v11.05078c-9.55259-.37059-31.71369-1.12695-48.90039-1.12695-17.96725 0-35.921849.75636-46.228514 1.12695v-11.05078l14.501953-2.70898c9.974391-1.89235 15.652341-6.47178 15.652341-30.16797v-150.49805c0-23.70762-5.6783-28.26124-15.652341-30.17969l-14.501953-2.66015v-11.08594c9.52646.37058 24.821274.36914 40.128904.36914 16.77672 0 34.74479-1.13672 57.26367-1.13672zm-6.86718 17.18555c-10.3199 0-22.13587.00025-30.94727.76757v95.84571c8.8114.83033 14.51537 1.17578 27.50781 1.17578 34.0157 0 54.62891-20.24276 54.62891-50.42188 0-30.53648-19.08002-47.36718-51.18945-47.36718z"/></svg>